# xmcd
#
# Track frame offsets:
#	150
#	12021
#	26256
#	42175
#	55883
#	70791
#	84401
#	97157
#	112023
#	129780
#	142552
#	158144
#	174720
#	190436
#	205233
#	217718
#	232976
#	246850
#	263236
#
# Disc length: 3716 seconds
#
# Revision: 1
# Processed by: cddbd v1.4PL0 Copyright (c) Steve Scherf et al.
# Submitted via: audiograbber 1.80
#
DISCID=f50e8213
DTITLE=Various Artist - Hott Trakks 005
DYEAR=1900
DGENRE=
TTITLE0=Suzy Bogguss - Give Me Some Wheels
TTITLE1=Alabama - Say I
TTITLE2=Mark Chestnutt - Wrong Place, Wrong time
TTITLE3=Tracy Lawrence - Time Marches On
TTITLE4=Diamond  Rio - That's What I Get For Lovin' You
TTITLE5=Shania Twain - No One Needs to Know
TTITLE6=David Ball - Circle Of friends
TTITLE7=Tracy Byrd - Four To One In Atlanta
TTITLE8=Ricky Skaggs - Cats In The Cradle
TTITLE9=Confederate Railroad - See Ya
TTITLE10=Kenny Chesney - Back In My Arms Again
TTITLE11=Linda Davis - A Love Story In The Making
TTITLE12=George Ducas - Every Time She Passes By
TTITLE13=Neal McCoy - Then You Can Tell Me Goodbye
TTITLE14=Ken Mellons - Stranger In Your Eyes
TTITLE15=Pam Tillis - It's Lonely Out There
TTITLE16=Daryle Singletary - Workin' It Out
TTITLE17=Keith Stegall - Fifty Fifty
TTITLE18=Lee Roy Parnell - Givin' Water To A Drowning Man
EXTD=
EXTT0=
EXTT1=
EXTT2=
EXTT3=
EXTT4=
EXTT5=
EXTT6=
EXTT7=
EXTT8=
EXTT9=
EXTT10=
EXTT11=
EXTT12=
EXTT13=
EXTT14=
EXTT15=
EXTT16=
EXTT17=
EXTT18=
PLAYORDER=
